<svg width="154" height="60" viewBox="0 0 154 60" fill="none" xmlns="http://www.w3.org/2000/svg">
<g clip-path="url(#clip0_9930_467)">
<mask id="mask0_9930_467" style="mask-type:luminance" maskUnits="userSpaceOnUse" x="0" y="5" width="154" height="50">
<path d="M154 5.625H0V54.625H154V5.625Z" fill="white"/>
</mask>
<g mask="url(#mask0_9930_467)">
<path d="M40.3983 51.1774V49.5472L5.09323 34.9847V36.4639L40.3983 51.1774ZM45.4113 52.068C61.9342 48.9274 74.6606 47.9014 84.2321 47.9014C96.2366 47.9014 103.282 49.5159 106.65 50.6097C107.198 50.7868 107.96 50.8128 108.602 50.6774L113.388 49.6514C113.789 49.568 114.083 49.4274 114.203 49.2712C119.617 42.3232 135.552 37.7868 148.586 35.1305L147.851 32.8232C119.163 36.9274 109.471 46.1982 109.377 46.292C109.377 46.2972 109.364 46.3076 109.351 46.3128C109.337 46.3284 109.311 46.3493 109.297 46.3649C109.284 46.3753 109.257 46.3909 109.244 46.4014C109.23 46.417 109.204 46.4326 109.177 46.4482C109.164 46.4587 109.137 46.4743 109.11 46.4847C109.097 46.5003 109.07 46.5159 109.043 46.5264C109.017 46.542 108.99 46.5524 108.963 46.5628C108.936 46.5784 108.91 46.5889 108.883 46.6045C108.856 46.6149 108.829 46.6253 108.803 46.6305C108.763 46.6462 108.736 46.6566 108.696 46.6722C108.669 46.6774 108.642 46.6878 108.615 46.6982C108.575 46.7087 108.535 46.7243 108.495 46.7347C108.468 46.7399 108.442 46.7451 108.428 46.7503C108.375 46.7659 108.321 46.7764 108.268 46.7868C108.255 46.792 108.228 46.7972 108.214 46.8024C108.161 46.8128 108.107 46.8232 108.041 46.8337C108.027 46.8337 108.014 46.8389 108.001 46.8389C107.987 46.8441 107.987 46.8441 107.987 46.8441C107.934 46.8493 107.88 46.8597 107.813 46.8649C107.787 46.8701 107.76 46.8753 107.733 46.8753C107.693 46.8805 107.64 46.8857 107.599 46.8909C107.559 46.8909 107.519 46.8962 107.493 46.9014C107.479 46.9014 107.466 46.9014 107.452 46.9014C107.426 46.9014 107.386 46.9066 107.359 46.9066C107.319 46.9066 107.265 46.9118 107.225 46.9118C107.198 46.9118 107.158 46.9118 107.118 46.9118C107.078 46.9118 107.025 46.9118 106.971 46.9118C106.944 46.9118 106.918 46.9118 106.891 46.9118C106.838 46.9118 106.771 46.9066 106.717 46.9066C106.704 46.9066 106.677 46.9014 106.664 46.9014C106.597 46.8962 106.53 46.8909 106.463 46.8857C106.463 46.8857 106.463 46.8857 106.45 46.8857C106.303 46.8701 106.169 46.8545 106.022 46.8284C77.1337 41.7816 50.7184 48.2243 45.4113 49.6618V52.068ZM133.908 27.7034C127.157 30.0316 117.425 34.2607 112.693 40.4118C118.855 37.3128 129.069 33.5368 144.883 31.167L133.908 27.7034ZM84.6465 9.87532C82.8953 10.3857 81.5986 10.9482 80.7564 11.3701L116.436 22.7659C117.278 23.0368 117.585 23.4899 117.184 23.8857C117.091 23.9743 110.22 30.9482 108.856 38.6409C115.647 31.0107 129.323 26.4274 135.445 24.6774L84.6465 9.87532ZM62.6293 8.11491C55.3438 13.6566 57.0415 25.5784 57.4559 27.8909L103.843 43.6774C102.185 35.1982 109.591 26.3389 111.877 23.8441L62.6293 8.11491ZM6.61719 32.7607L43.2189 47.8649C49.4351 46.2034 70.3293 41.3649 95.5014 43.4378L53.9936 29.3128C30.8267 28.443 13.1007 31.4482 6.61719 32.7607ZM0.0802002 32.5212C0.0802002 32.5107 0.0935669 32.5003 0.0935669 32.4951C0.0935669 32.4639 0.0935669 32.4378 0.106934 32.4118C0.106934 32.4118 0.106934 32.4118 0.106934 32.4066C0.106934 32.4014 0.106934 32.3962 0.106934 32.3857C0.1203 32.3597 0.133667 32.3337 0.147049 32.3076C0.147049 32.2972 0.160416 32.292 0.160416 32.2816C0.187149 32.2555 0.200516 32.2347 0.213882 32.2087C0.227249 32.1982 0.240616 32.1878 0.240616 32.1774C0.267365 32.1566 0.294098 32.1357 0.320831 32.1149C0.334198 32.1045 0.334198 32.0941 0.347565 32.0837C0.374298 32.0628 0.414413 32.042 0.441147 32.0212C0.454514 32.0107 0.46788 32.0055 0.481247 31.9951C0.521347 31.9743 0.54808 31.9534 0.588196 31.9378C0.601562 31.9274 0.614929 31.917 0.641663 31.9118C0.681763 31.8909 0.721878 31.8701 0.761978 31.8545C0.775345 31.8493 0.788712 31.8389 0.815445 31.8337C0.868912 31.8076 0.93576 31.7868 1.00259 31.7659C1.01596 31.7607 1.02933 31.7607 1.02933 31.7555C1.09618 31.7399 1.14964 31.7191 1.21649 31.7034C1.21649 31.7034 1.22986 31.7034 1.22986 31.6982C2.11215 31.4795 22.445 26.4326 52.3359 27.2868C51.7344 23.443 50.6917 11.2712 59.9156 6.07845C60.3167 5.85449 60.9316 5.70345 61.6267 5.66699C62.3085 5.63053 63.017 5.70866 63.5517 5.88053L76.8663 10.1305C78.2165 9.45866 80.3821 8.56282 83.43 7.83886C84.299 7.63053 85.4085 7.65136 86.224 7.89095L141.274 23.9274C141.942 24.1253 142.316 24.4378 142.276 24.7659C142.236 25.0941 141.782 25.3909 141.06 25.5576C141.006 25.5732 139.79 25.8649 137.865 26.4326L151.5 30.7347C151.874 30.8493 152.169 31.0055 152.329 31.193C152.342 31.2034 152.342 31.2087 152.356 31.2191C152.409 31.2816 152.436 31.3441 152.449 31.4014L153.786 35.568C153.92 35.9795 153.358 36.3805 152.423 36.568C142.249 38.5576 124.39 42.9326 118.989 49.8441C118.481 50.4951 117.345 51.0368 115.794 51.3701L111.008 52.4014C108.562 52.9222 105.608 52.8128 103.469 52.1201C97.9745 50.3493 81.1708 47.0316 44.0477 54.5264C43.9542 54.5472 43.874 54.5628 43.7804 54.5732C43.767 54.5784 43.7536 54.5784 43.7403 54.5784C43.6734 54.5889 43.5932 54.5993 43.513 54.6045C43.4996 54.6097 43.4729 54.6097 43.4462 54.6149C43.3793 54.6201 43.3125 54.6253 43.2457 54.6253C43.2189 54.6305 43.1922 54.6305 43.1655 54.6305C43.0852 54.6357 42.9917 54.6357 42.8981 54.6357C42.7911 54.6357 42.6976 54.6357 42.5906 54.6305C42.5639 54.6305 42.5371 54.6253 42.5104 54.6253C42.4302 54.6201 42.35 54.6149 42.2832 54.6045C42.2564 54.6045 42.2297 54.5993 42.2029 54.5993C42.1094 54.5889 42.0024 54.5732 41.9089 54.5576C41.8955 54.5576 41.8955 54.5524 41.8955 54.5524C41.8019 54.5368 41.7083 54.5212 41.6281 54.5003C41.6148 54.5003 41.6014 54.4951 41.6014 54.4951C41.588 54.4899 41.5747 54.4847 41.5613 54.4847C41.4944 54.4691 41.441 54.4534 41.3875 54.4378C41.3608 54.4274 41.334 54.4222 41.3073 54.4118C41.2538 54.3962 41.2003 54.3753 41.1469 54.3545C41.1335 54.3493 41.1068 54.3389 41.08 54.3284L0.761978 37.5264C0.334198 37.3441 0.0802002 37.1045 0.0802002 36.8545V32.5264C0.0802002 32.5212 0.0802002 32.5212 0.0802002 32.5212Z" fill="black"/>
</g>
</g>
<defs>
<clipPath id="clip0_9930_467">
<rect width="154" height="60" fill="white" transform="matrix(-1 0 0 1 154 0)"/>
</clipPath>
</defs>
</svg>
