<svg id="Capa_1" data-name="Capa 1" xmlns="http://www.w3.org/2000/svg" viewBox="0 0 700 180"><defs><style>.cls-1{fill:#fff;}</style></defs><path class="cls-1" d="M179.85,18.14c8.57-20.29,38.57-22.11,47.86.94.49-.77.92-1.39,1.27-2,6.33-11.74,18.3-17,31.2-13.62,10.25,2.67,17.06,10.24,18.05,20.79.56,5.85.5,11.76.51,17.65,0,18.86,0,37.72,0,56.58,0,5.4-.75,6.14-6.09,6.17q-6.48,0-13,0c-5.26,0-6-.69-6-5.85q0-26.32,0-52.65a94.29,94.29,0,0,0-.33-9.81c-.71-6.61-3.45-9.62-8.86-10.17-6.15-.62-11.39,2.51-13.19,8.2a26,26,0,0,0-1.2,7.32c-.19,18.6-.25,37.19-.33,55.79,0,6.87-.31,7.18-7,7.18-4.19,0-8.38,0-12.57,0-4.46,0-5.38-.91-5.38-5.25,0-17.29.1-34.58,0-51.86a72.11,72.11,0,0,0-1.29-14c-1-5-4.33-7.35-9.17-7.7-5.05-.38-9.52,1.77-11,6.49a53.74,53.74,0,0,0-2.35,14.61c-.28,17.29-.11,34.58-.13,51.87,0,5.19-.66,5.83-5.92,5.85-4.46,0-8.91,0-13.36,0-4.86,0-5.74-.87-5.74-5.73q0-40.08,0-80.16c0-3,.09-6,0-9-.13-3.59,1.32-5.39,5.07-5.3,4.71.1,9.42,0,14.14,0,3.24,0,4.87,1.39,4.78,4.74C179.78,12.13,179.85,15.14,179.85,18.14Z"/><path class="cls-1" d="M112.59,93.1c-1.21,1.08-2.56,2.27-3.89,3.5C99,105.53,87.42,107.41,75,104.84,66,103,60,97.18,57.15,88.37c-5.87-18,2.55-35.79,20.52-41.64C85.55,44.16,94,43.47,102.26,42c2.17-.39,4.39-.53,7-.83,0-2.62.08-5.09,0-7.54-.31-7.55-3.62-11.48-10.45-12.53s-13.66,2.61-16,8.69c-2.11,5.58-2.11,5.61-8.1,5-4-.39-8.06-1-12.1-1.33-3.48-.31-4.46-2.16-3.72-5.37C61.07,18.61,66.28,11.28,75,7a52.16,52.16,0,0,1,43.4-1.68c9.74,3.82,15.5,11.33,15.95,21.86.58,13.33.63,26.7.48,40.05-.09,7.13,1.32,13.49,6,18.94,2.48,2.86,2.23,5.16-.85,7.56-3.93,3.05-7.59,6.43-11.31,9.74-2.36,2.08-4.68,2.32-6.89,0C118.75,100.1,115.77,96.65,112.59,93.1Zm-2.69-37c-7.25-.31-13.17.3-18.7,3a16.89,16.89,0,0,0-7.3,22.79,10.32,10.32,0,0,0,11.94,5.22c6.38-1.56,10.23-6.11,11.67-12S109.12,62.8,109.9,56.13Z"/><path class="cls-1" d="M351.57,93c-6,6-12.42,11.14-21.07,12.12a60.32,60.32,0,0,1-13.69.27c-11.31-1.36-19-8.8-21.4-20-4-18.4,5-34.13,23-39.36,7.36-2.12,15.15-2.79,22.75-4.06,2.19-.37,4.41-.52,7.08-.82,0-2.17,0-4.22,0-6.28-.14-8.5-3.28-12.68-10.37-13.8-7.55-1.2-14.25,2.8-16.42,10.11-.92,3.08-2.47,4.28-5.68,3.81-4.54-.65-9.11-1-13.66-1.53-4.27-.52-5.13-1.79-4.08-6.05,2.31-9.29,7.61-16.45,16.25-20.57a52.32,52.32,0,0,1,43.06-1.59c9.74,3.81,15.57,11.25,16,21.79.59,13.47.63,27,.49,40.44-.07,7,1.39,13.22,6,18.57,2.4,2.8,2.44,5.14-.72,7.58-3.92,3-7.61,6.42-11.3,9.74-2.53,2.28-4.91,2.31-7.18-.17C357.67,100,354.78,96.63,351.57,93Zm-3.4-37.61c-5.24.83-9.92,1.27-14.43,2.4a20.19,20.19,0,0,0-7.2,3.75c-5,3.92-6.69,11.74-4.46,18.32,1.61,4.75,5.08,7.56,9.84,7.53,7.06-.05,11.19-4.33,14-10.26C349,70.49,348.27,63.43,348.17,55.4Z"/><path class="cls-1" d="M594.24,20c.64-1.25,1.26-2.51,1.92-3.75C603,3.44,617.35-1.3,630.42,5c8.35,4,12.2,11.19,13.32,20a114.06,114.06,0,0,1,.91,13.7c.09,20,0,40.08,0,60.12,0,5-.77,5.76-5.61,5.8s-9.43,0-14.14,0c-4.35,0-5.31-1-5.31-5.34,0-18.07,0-36.15-.06-54.22a58.61,58.61,0,0,0-1-10.91c-.87-4.42-3.44-7.66-8.21-8.41-4.94-.78-9.24,1-11.26,5.35s-3.75,9.39-3.88,14.17c-.49,17.54-.26,35.09-.3,52.64,0,6.1-.63,6.72-6.75,6.73H574.38c-3,0-4.58-1.33-4.57-4.52q0-45.58,0-91.16c0-2.94,1.25-4.47,4.15-4.5,5.11,0,10.22,0,15.33,0,2.86,0,4.31,1.42,4.24,4.4-.09,3.65,0,7.31,0,11Z"/><path class="cls-1" d="M556.2,55.88c-.08,10.92-2.32,22.23-8.91,32.32-8.35,12.79-20.2,19.09-35.52,18.18-14.81-.88-25.52-8.52-31.69-21.7-9.26-19.81-9.4-40.15-.3-60,6.47-14.13,18-21.82,33.82-22.12,16.26-.31,28.07,7.07,35.64,21.28C554.41,33.53,556.08,44.08,556.2,55.88Zm-56.28-2.62.86,0c0,3.92-.51,7.93.12,11.75.91,5.48,1.85,11.21,4.22,16.14,3.76,7.82,14.09,8.1,19,.91,1.58-2.31,3.11-5.15,3.29-7.84.69-10.92,1.15-21.87,1.07-32.8,0-4.21-1.39-8.51-2.72-12.57-1.48-4.52-5.08-6.85-9.82-7.22s-8.8,1.36-11.22,5.66a22,22,0,0,0-2.82,7.25C501,40.77,500.55,47,499.92,53.26Z"/><path class="cls-1" d="M297.06,178.6c-59.53-.89-109.23-18.71-152.19-54.87a17.32,17.32,0,0,1-3.15-2.94,25.8,25.8,0,0,1-2-4.22c1.63.16,3.41,0,4.86.57,2.52,1,4.83,2.61,7.25,3.91,31.95,17.09,65.94,27.75,101.75,33.07a298.83,298.83,0,0,0,60.7,2.73A301.51,301.51,0,0,0,413,134.5c1.08-.45,2.22-1.29,3.27-1.21,2,.16,4.75.2,5.8,1.46,1.66,2,.1,4.21-2,5.52-7,4.38-13.76,9.16-21,12.95A221.38,221.38,0,0,1,319,176.89C310.53,177.77,302,178.22,297.06,178.6Z"/><path class="cls-1" d="M430.62,24.42H402c-5.23,0-5.84-.66-5.86-5.9,0-3.41,0-6.81,0-10.22,0-2.76,1.32-4.09,4.08-4.08q29.25,0,58.52,0c3,0,4,1.54,4.27,4.39.64,7.84-1,14.62-6,21.17-9.52,12.48-18.16,25.62-27.16,38.49-.65.94-1.24,1.93-1.92,3,6,.71,11.91.94,17.56,2.2,5.17,1.16,10.13,3.35,15.12,5.27,2.85,1.1,4.1,3.44,4.05,6.54-.07,4.18.07,8.38,0,12.56-.11,3.75-2,4.94-5.4,3.37-20.49-9.53-40.92-9.63-61.36.15-3,1.44-5,.36-5.1-2.92a150.36,150.36,0,0,1,.33-17.25c.22-2.43,1.67-4.94,3.11-7C406.74,58.82,417.42,43.61,428,28.36,428.77,27.31,429.44,26.22,430.62,24.42Z"/><path class="cls-1" d="M426.71,165.14c.53-1.68,1.06-3.35,1.57-5,2.91-9.62,6.09-19.15,8.61-28.87,1.55-5.94-1-9.81-7.11-10.11-9.48-.47-19,.12-28.52.31-2.5,0-5,.25-7.51.38l-.44-1.23a31.44,31.44,0,0,1,3.61-3.06,47.44,47.44,0,0,1,23.32-7.43c8-.32,16.13.57,24.17,1.23,4.16.34,6,2.87,5.83,7.25a66.47,66.47,0,0,1-16.77,42.93c-1.55,1.76-3.64,3-5.47,4.56Z"/></svg>