<svg id="Capa_1" data-name="Capa 1" xmlns="http://www.w3.org/2000/svg" viewBox="0 0 426.89 180"><defs><style>.cls-1{fill:#fff;}</style></defs><path class="cls-1" d="M12,49.28C20.55,27.21,37.53,15,59.71,9.66,76.56,5.62,93.31,6.87,109,15c14.12,7.37,19.69,18.68,16.84,33.43-1.49,7.75-5.5,14.24-10.89,19.9-8.27,8.71-18.53,14.23-29.76,18-3.18,1.06-4,2.56-3.69,5.7,1.19,13.33,3.67,26.26,11.1,37.7,5.75,8.86,13.51,14.79,24.49,15.4,6.88.38,13.23-1.62,19.2-4.87,2.74-1.49,5.38-2.21,7.38.73,2.11,3.11.37,5.4-2.16,7.46-10.07,8.2-20.82,15-34.09,16.59-12,1.49-22.34-2.06-31-10.41C66.28,144.81,61.68,132.2,59,118.75a69.3,69.3,0,0,0-2.45-10.43c-.61,2-1.32,3.93-1.82,5.93-1.49,5.94-3,11.89-4.33,17.86-.9,4-3.24,5.89-7.29,6.15-11.89.78-20-8.13-17.15-20.06,3.4-14.2,7.31-28.31,11.92-42.15,4.22-12.66,9.71-24.9,14.56-37.35,1.78-4.59,5.08-6.91,9.9-6.89a100.34,100.34,0,0,1,13.33.57c5.48.76,6.56,3.34,4.44,8.6Q73.73,56.67,67.54,72.41c-.54,1.36-.88,2.81-1.32,4.24.64.16.94.35,1.12.27,14-6.65,24.48-16.5,28.07-32.13A30.88,30.88,0,0,0,95.57,34c-1-7.83-7.27-12.52-16.44-13.17-13-.92-23.35,4.48-32.07,13.44C39,42.54,33.41,52.2,32.43,64c-.29,3.55-2.36,5.15-5.72,5.46C21.28,70,16,66.63,13.48,61.08,13,60,12.51,58.8,12,57.65Z"/><path class="cls-1" d="M398.88,4.06c.95.51,1.87,1.07,2.84,1.51a17.73,17.73,0,1,1-14.14-.08c1-.44,1.95-1,2.93-1.43Z"/><path class="cls-1" d="M257.14,118.06c9.24-5.06,15.45-11.57,18.83-20.84,4.76-13.08,9.59-26.15,14.88-39s15-14.9,25.59-5.6c2.7-1.92,5.29-4.05,8.13-5.76,14.33-8.64,28.17-2.33,30,14.22.72,6.63-.13,13.65-1.49,20.24a93,93,0,0,1-6.56,18.89c-2.65,5.94-6.21,11.48-9.6,17.6,9.18-5,16-11.64,19.43-21.62s7-20,10.85-29.81c1.71-4.39,4.16-8.5,6.3-12.73,4.37-8.63,17.09-7.54,21.89-3.05,3,2.79,3.22,5.8,1.67,9.46-4.35,10.25-8.66,20.53-12.66,30.92a85.42,85.42,0,0,0-3.57,13.29c-.45,2.17-.08,4.5-.08,6.76l1.27.53c1.66-1.13,3.61-2,4.93-3.43,4.12-4.52,8-9.29,12-13.89,1.08-1.23,2.28-2.92,3.65-3.16a6.64,6.64,0,0,1,5.15,1.34c.87.86,1,3.6.29,4.77-7.67,12.38-16,24.26-28,32.93a34.39,34.39,0,0,1-10.72,5.37c-9.87,2.72-16-1.76-17.15-12-.14-1.2-.21-2.4-.35-4.13-1.5,1-2.6,1.81-3.69,2.59-11.6,8.2-24.1,14-38.6,14.33-6.82.18-13.51.05-18.18-7.74-3.14,11.37-6,21.62-8.77,31.9-.73,2.68-1.2,5.44-1.78,8.16-.93,4.36-3.11,6.16-7.57,6.25a14.56,14.56,0,0,1-14.76-18.17c2.28-9.62,5.13-19.1,7.71-28.64.36-1.3.66-2.61,1.19-4.75-1.86,1.05-3,1.67-4.14,2.36-10.3,6.22-21.22,10.48-33.45,10.63-9.64.12-10.81-.3-17.89-6.82-1.3,4.43-2.66,8.61-3.77,12.85-2.34,8.89-4.62,17.79-6.77,26.73-.94,3.86-3.27,5.62-7.09,5.81-9.77.46-17.48-8.3-15.24-17.77s4.92-18.58,7.41-27.87c.28-1,.51-2.11,1.07-4.44-2.2,1.78-3.38,3.08-4.84,3.85-4.85,2.58-9.59,5.73-14.79,7.24-6.2,1.81-10.83-1-13.49-6.95-1.28-2.84-2.38-3.3-4.83-1.1a36.46,36.46,0,0,1-7.48,5.27c-15.13,7.86-29,.51-30.35-16.5-1.73-22.17,5.63-41.72,19.15-59C133.78,53.88,138,51,142,48.26a30.86,30.86,0,0,1,9.11-4c11.13-3.09,17.5,0,22.12,10.34,6.26-7.26,12-9.13,19.21-6.24,6,2.42,7.5,6.28,5.16,12.25-5.14,13.08-10.27,26.16-15,39.38-1.19,3.32-1,7.16-1.39,10.76l1.43.65a32.51,32.51,0,0,0,4.4-2.58A35.52,35.52,0,0,0,198,93.3c4.65-12.38,9.29-24.78,14.35-37C216.56,46,227.37,44,235.72,51.49l1.33,1.23c2.15-1.61,4.18-3.29,6.37-4.75,6.87-4.61,14.34-6.65,22.12-3s9.82,11.4,10.15,19.32c.59,14.06-4.08,26.89-10.12,39.26C263.26,108.31,260.28,112.71,257.14,118.06ZM161.56,59.59c-12.66,6-28.25,48.64-22,59.76C151.66,114.33,167.58,71.61,161.56,59.59Zm86.75.56c-12.45,4.05-31.58,48.51-25.82,59.45C234.14,116,252.77,73.44,248.31,60.15Zm79.13-.07c-12.68,5.32-30.78,47.5-25.73,59.42C313.21,116.86,332.85,71.85,327.44,60.08Z"/></svg>