<svg width="163" height="130" viewBox="0 0 163 130" fill="none" xmlns="http://www.w3.org/2000/svg">
<mask id="mask0_9930_460" style="mask-type:luminance" maskUnits="userSpaceOnUse" x="0" y="0" width="163" height="130">
<path d="M162.097 0H0.912766V130H162.097V0Z" fill="white"/>
</mask>
<g mask="url(#mask0_9930_460)">
<path fill-rule="evenodd" clip-rule="evenodd" d="M73.1734 0H153.718C158.328 0 162.066 3.00216 162.066 6.71973V123.267C162.066 126.985 158.328 130 153.718 130C135.107 130 75.0742 130 56.4625 130C54.245 130 52.1225 129.285 50.5544 128.02C49.0021 126.768 48.115 125.056 48.115 123.267V73.355L4.98358 38.5682C2.38588 36.4731 0.912796 33.6242 0.912796 30.6476C0.912796 27.671 2.38588 24.8221 4.98358 22.727C4.98358 22.7142 4.99942 22.7142 4.99942 22.7142C7.59714 20.6191 11.1452 19.431 14.82 19.431C18.5107 19.431 22.0429 20.6191 24.6406 22.7142L48.115 41.647V20.1975C48.115 19.5971 48.416 19.035 48.9387 18.6134L71.1143 0.728186C71.6211 0.281055 72.3498 0 73.1734 0ZM75.9454 4.47131H153.718C155.255 4.47131 156.506 5.48055 156.506 6.71973V123.267C156.506 124.507 155.255 125.516 153.718 125.516C135.107 125.516 75.0742 125.516 56.4625 125.516C55.7181 125.516 55.0211 125.273 54.4984 124.852C53.9757 124.43 53.6748 123.868 53.6748 123.267V77.839L75.0742 95.0983C75.2643 95.2516 75.486 95.3921 75.7236 95.4943L109.446 110.135C122.815 120.687 137.815 117.391 142.219 109.202C145.672 102.802 143.898 94.1785 136.152 88.7107C130.656 84.827 126.347 83.1407 120.502 79.832C113.818 76.0505 108.765 70.455 107.973 58.4591H108.971C111.711 58.4591 114.341 57.5776 116.273 56.0191C118.221 54.4605 119.299 52.3398 119.299 50.1297V50.1169C119.299 47.2809 120.566 44.5342 122.862 42.388C126.49 39.092 128.66 34.774 128.66 30.0599C128.66 19.661 118.111 11.2038 105.09 11.2038C92.0702 11.2038 81.5051 19.661 81.5051 30.0599C81.5051 34.774 83.691 39.092 87.2707 42.4007C89.2982 44.2915 90.5179 46.6421 90.7871 49.1205C90.8188 49.4526 90.8505 50.4108 90.8822 50.5513C91.0089 52.6081 92.086 54.5627 93.8917 56.0191C95.84 57.5776 98.4694 58.4591 101.21 58.4591H102.413C103.253 72.6523 109.494 79.0782 117.303 83.4984C122.973 86.705 127.155 88.3147 132.477 92.0833C138.29 96.1842 139.7 102.623 137.118 107.426C133.934 113.354 123.068 114.58 113.375 106.954L95.2223 79.7681C95.0955 79.5765 94.9213 79.3976 94.7312 79.2443L53.6748 46.1183C53.6748 46.0672 53.6748 46.0033 53.6748 45.9395V22.4332H73.1734C74.7099 22.4332 75.9454 21.4367 75.9454 20.1975V4.47131ZM88.4587 112.064H89.8526C91.3891 112.064 92.6245 113.073 92.6245 114.299C92.6245 115.539 91.3891 116.548 89.8526 116.548H88.4587V117.672C88.4587 118.898 87.2232 119.908 85.6868 119.908C84.1503 119.908 82.899 118.898 82.899 117.672V116.548H81.5209C79.9845 116.548 78.7331 115.539 78.7331 114.299C78.7331 113.073 79.9845 112.064 81.5209 112.064H82.899V110.939C82.899 109.7 84.1503 108.704 85.6868 108.704C87.2232 108.704 88.4587 109.7 88.4587 110.939V112.064ZM104.283 102.802L96.6795 99.4929C97.6616 98.3815 98.8337 97.4361 100.18 96.6441L104.283 102.802ZM90.5179 82.1826L97.519 92.671C95.2381 93.9102 93.3215 95.4688 91.7534 97.3595L78.7173 91.7001L77.4343 90.6653L85.4492 89.375C86.5579 89.1962 87.4133 88.5063 87.635 87.612L89.2348 81.1478L90.5179 82.1826ZM23.8328 41.0849L79.2717 85.798L72.7141 86.8583L20.2689 44.5597C21.3935 43.3589 22.5815 42.1963 23.8328 41.0849ZM32.0694 35.0423L84.5146 77.3408L83.1999 82.6297L27.761 37.9167C29.1391 36.9074 30.5805 35.9493 32.0694 35.0423ZM139.874 62.7516H142.646C144.183 62.7516 145.434 63.7608 145.434 65C145.434 66.2264 144.183 67.2357 142.646 67.2357H139.874V69.4713C139.874 70.7105 138.623 71.7197 137.087 71.7197C135.566 71.7197 134.315 70.7105 134.315 69.4713V67.2357H131.527C130.006 67.2357 128.755 66.2264 128.755 65C128.755 63.7608 130.006 62.7516 131.527 62.7516H134.315V60.5159C134.315 59.2767 135.566 58.2675 137.087 58.2675C138.623 58.2675 139.874 59.2767 139.874 60.5159V62.7516ZM102.318 53.975H101.21C99.9425 53.975 98.7228 53.5662 97.82 52.8508C96.9329 52.1226 96.4261 51.1517 96.4261 50.1297L96.3469 48.98C96.0301 45.4796 94.3352 42.1452 91.4841 39.4752C91.4682 39.4625 91.4682 39.4625 91.4682 39.4625C88.728 36.933 87.0648 33.6498 87.0648 30.0599C87.0648 22.1138 95.1431 15.6879 105.09 15.6879C115.022 15.6879 123.116 22.1138 123.116 30.0599C123.116 33.6498 121.453 36.9202 118.697 39.4241C118.697 39.4369 118.681 39.4369 118.665 39.4497C115.497 42.4135 113.755 46.2077 113.755 50.1169V50.1297C113.755 51.1517 113.248 52.1226 112.345 52.8508C111.458 53.5662 110.238 53.975 108.971 53.975H107.878L107.91 34.7995L110.84 33.241C112.107 32.5639 112.472 31.1714 111.616 30.1366C110.777 29.1018 109.05 28.8208 107.767 29.4978L105.09 30.9287L102.413 29.4978C101.13 28.8208 99.4039 29.1018 98.5486 30.1366C97.7091 31.1714 98.0734 32.5639 99.3406 33.241L102.35 34.8379L102.318 53.975ZM16.309 41.3532L8.92767 35.4C7.35954 34.1352 6.47252 32.4361 6.47252 30.6476C6.47252 28.8591 7.35954 27.16 8.92767 25.8952V25.8825C10.4958 24.6305 12.6183 23.9151 14.82 23.9151C17.0376 23.9151 19.1601 24.6305 20.7124 25.8825L28.1095 31.8485C23.6744 34.5951 19.7145 37.7889 16.309 41.3532ZM144.024 15.7134H145.434C146.97 15.7134 148.206 16.7227 148.206 17.9491C148.206 19.1883 146.97 20.1975 145.434 20.1975H144.024V21.3345C144.024 22.5737 142.773 23.5702 141.237 23.5702C139.716 23.5702 138.465 22.5737 138.465 21.3345V20.1975H137.055C135.518 20.1975 134.283 19.1883 134.283 17.9491C134.283 16.7227 135.518 15.7134 137.055 15.7134H138.465V14.5765C138.465 13.3373 139.716 12.3408 141.237 12.3408C142.773 12.3408 144.024 13.3373 144.024 14.5765V15.7134ZM57.603 17.9491L70.3856 7.65232V17.9491H57.603Z" fill="black"/>
</g>
</svg>
