<svg width="188" height="197" viewBox="0 0 188 197" fill="none" xmlns="http://www.w3.org/2000/svg">
<path d="M33.0819 102.416C33.3977 100.225 33.6409 97.9959 34.0294 95.8047C36.6001 81.7185 43.4028 69.9831 54.2985 60.6174C63.2962 52.8825 73.7434 47.9805 85.5645 46.6126C109.383 43.8548 128.753 52.0154 143.324 70.9316C149.433 78.792 153.261 88.1564 154.394 98.0146C157.138 121.529 149 140.683 130.06 155.136C121.969 161.312 112.649 164.84 102.549 166.298C101.065 166.514 99.571 166.664 98.0835 166.846H90.0081C88.5206 166.664 87.0267 166.514 85.5456 166.298C73.775 164.57 63.2994 159.963 54.308 152.228C43.4218 142.865 36.6222 131.133 34.0546 117.05C33.6567 114.859 33.423 112.645 33.1072 110.442L33.0819 102.416ZM149.676 106.429C149.72 76.0652 124.982 51.3956 94.1105 51.3049C63.4004 51.2141 38.5013 75.7209 38.4129 106.397C38.3245 136.761 63.0941 161.431 93.9653 161.521C124.675 161.631 149.543 137.134 149.676 106.429Z" fill="white"/>
<path d="M91.3976 93.9394C91.3976 89.8116 91.3976 85.6838 91.3976 81.556C91.3704 81.02 91.5149 80.4891 91.8104 80.0393C92.106 79.5896 92.5374 79.2439 93.043 79.0518C94.0631 78.6073 95.1243 78.7607 95.7686 79.5652C96.308 80.2719 96.6126 81.1273 96.6402 82.0131C96.716 87.1216 96.6781 92.2334 96.6781 97.3513C96.6781 99.6677 96.7097 101.99 96.6592 104.307C96.6438 104.654 96.707 105 96.8442 105.319C96.9813 105.639 97.189 105.924 97.4519 106.154C106.358 114.95 115.251 123.758 124.132 132.579C124.534 132.958 124.902 133.371 125.231 133.813C125.56 134.305 125.707 134.895 125.648 135.482C125.589 136.069 125.327 136.619 124.908 137.037C124.488 137.456 123.935 137.719 123.343 137.781C122.751 137.843 122.155 137.7 121.656 137.378C121.27 137.105 120.91 136.795 120.582 136.455C111.318 127.285 102.054 118.116 92.7904 108.949C92.31 108.515 91.9315 107.981 91.6816 107.386C91.4317 106.792 91.3164 106.15 91.344 105.506C91.4166 101.655 91.3692 97.8021 91.3692 93.9487L91.3976 93.9394Z" fill="white"/>
<path d="M91.3914 62.4145C91.3914 60.1169 92.6199 58.893 94.5874 59.2342C96.2644 59.5253 97.0919 61.3064 96.6245 63.6165C96.5512 63.962 96.4076 64.2891 96.2025 64.5777C95.9973 64.8663 95.7349 65.1104 95.4313 65.295C95.1277 65.4796 94.7892 65.6008 94.4367 65.6513C94.0842 65.7018 93.7249 65.6805 93.381 65.5886C92.0419 65.285 91.3882 64.2457 91.3914 62.4145Z" fill="white"/>
<path d="M49.6844 109.044C47.5432 109.044 46.3462 108.105 46.362 106.405C46.3549 105.771 46.5876 105.157 47.0143 104.684C47.441 104.211 48.0307 103.914 48.6675 103.85C49.2196 103.797 49.7752 103.788 50.3287 103.825C51.892 103.913 52.9784 105.012 52.9595 106.455C52.9405 107.898 51.8478 108.959 50.2782 109.04C50.0824 109.053 49.8992 109.044 49.6844 109.044Z" fill="white"/>
<path d="M138.514 109.171C136.051 109.061 134.74 107.718 135.243 105.727C135.558 104.475 136.585 103.824 138.256 103.805C140.122 103.78 141.253 104.391 141.616 105.618C141.806 106.183 141.791 106.796 141.573 107.351C141.355 107.907 140.948 108.369 140.422 108.657C139.847 108.948 139.152 109.008 138.514 109.171Z" fill="white"/>
<path d="M96.675 150.391C96.6939 152.513 95.7275 153.699 94.0158 153.687C93.3757 153.695 92.7559 153.464 92.2788 153.041C91.8016 152.618 91.5019 152.033 91.4387 151.402C91.3845 150.855 91.376 150.304 91.4135 149.755C91.4987 148.19 92.6073 147.129 94.0632 147.145C95.5191 147.16 96.5897 148.247 96.675 149.802C96.6845 149.996 96.675 150.194 96.675 150.391Z" fill="white"/>
<path d="M66.0817 76.0969C65.5038 76.7762 65.0237 77.5806 64.3258 78.1065C63.5583 78.6825 62.6109 78.5416 61.7803 78.0189C60.1001 76.9671 59.3106 75.4802 59.7306 74.1749C59.8434 73.7796 60.0503 73.4169 60.3339 73.1173C60.6175 72.8177 60.9695 72.5899 61.3603 72.4531C61.7511 72.3163 62.1694 72.2745 62.5799 72.3312C62.9904 72.3879 63.3812 72.5414 63.7194 72.7788C64.9039 73.5468 65.7487 74.7333 66.0817 76.0969Z" fill="white"/>
<path d="M124.356 78.4733C123.971 78.1603 123.159 77.6814 122.626 76.9927C122.038 76.2352 122.165 75.3024 122.692 74.4697C123.741 72.8107 125.25 72.0125 126.564 72.4225C128.37 72.9829 129.059 74.9518 127.919 76.4481C127.155 77.4529 126.299 78.4013 124.356 78.4733Z" fill="white"/>
<path d="M63.4383 134.139C64.1236 134.712 64.9353 135.19 65.4627 135.882C66.047 136.643 65.9049 137.579 65.3774 138.405C64.3131 140.067 62.813 140.85 61.4992 140.434C61.0995 140.323 60.7325 140.119 60.4294 139.838C60.1262 139.557 59.8958 139.208 59.7577 138.82C59.6195 138.432 59.5776 138.017 59.6356 137.61C59.6935 137.202 59.8496 136.815 60.0907 136.48C60.8653 135.306 62.0625 134.468 63.4383 134.139Z" fill="white"/>
</svg>
