<svg width="154" height="154" viewBox="0 0 154 154" fill="none" xmlns="http://www.w3.org/2000/svg">
<g clip-path="url(#clip0_10027_352)">
<path d="M109.992 55.1167H96.25C95.488 55.1167 94.833 54.8493 94.2982 54.3146C93.7635 53.7665 93.4962 53.1249 93.4962 52.3629C93.4962 51.6009 93.7635 50.9459 94.2982 50.4112C94.833 49.8764 95.488 49.5957 96.25 49.5957H109.992C110.754 49.5957 111.396 49.8764 111.931 50.4112C112.465 50.9459 112.733 51.6009 112.733 52.3629C112.733 53.1249 112.465 53.7665 111.931 54.3146C111.396 54.8493 110.754 55.1167 109.992 55.1167Z" fill="black"/>
<path d="M85.2481 55.1167H82.4943C81.7456 55.1167 81.0906 54.8493 80.5559 54.3146C80.0212 53.7665 79.7538 53.1249 79.7538 52.3629C79.7538 51.6009 80.0212 50.9459 80.5559 50.4112C81.0906 49.8764 81.7456 49.5957 82.4943 49.5957H85.2481C86.0101 49.5957 86.6517 49.8764 87.1864 50.4112C87.7345 50.9459 88.0019 51.6009 88.0019 52.3629C88.0019 53.1249 87.7345 53.7665 87.1864 54.3146C86.6517 54.8493 86.0101 55.1167 85.2481 55.1167Z" fill="black"/>
<path d="M109.992 66.1577H107.239C106.477 66.1577 105.835 65.8904 105.3 65.3423C104.765 64.8076 104.485 64.1525 104.485 63.3905C104.485 62.6286 104.765 61.9869 105.3 61.4388C105.835 60.9041 106.477 60.6367 107.239 60.6367H109.992C110.754 60.6367 111.396 60.9041 111.931 61.4388C112.465 61.9869 112.733 62.6286 112.733 63.3905C112.733 64.1525 112.465 64.8076 111.931 65.3423C111.396 65.8904 110.754 66.1577 109.992 66.1577Z" fill="black"/>
<path d="M82.4943 60.6367H96.25C96.9986 60.6367 97.6537 60.9041 98.1884 61.4388C98.7231 61.9869 98.9905 62.6286 98.9905 63.3905C98.9905 64.1525 98.7231 64.8076 98.1884 65.3423C97.6537 65.8904 96.9986 66.1577 96.25 66.1577H82.4943C81.7457 66.1577 81.0907 65.8904 80.5559 65.3423C80.0212 64.8076 79.7538 64.1525 79.7538 63.3905C79.7538 62.6286 80.0212 61.9869 80.5559 61.4388C81.0907 60.9041 81.7457 60.6367 82.4943 60.6367Z" fill="black"/>
<path d="M109.992 77.1873H82.4942C81.7456 77.1873 81.0906 76.92 80.5559 76.3852C80.0212 75.8505 79.7538 75.1955 79.7538 74.4335C79.7538 73.6715 80.0212 73.0165 80.5559 72.4818C81.0906 71.947 81.7456 71.6797 82.4942 71.6797H109.992C110.754 71.6797 111.396 71.947 111.931 72.4818C112.465 73.0165 112.733 73.6715 112.733 74.4335C112.733 75.1955 112.465 75.8505 111.931 76.3852C111.396 76.92 110.754 77.1873 109.992 77.1873Z" fill="black"/>
<path d="M71.5057 71.6792V77.1868C71.5057 77.9488 71.7731 78.6038 72.3078 79.1385C72.8425 79.6866 73.4976 79.954 74.2462 79.954C75.0082 79.954 75.6632 80.2214 76.1979 80.7561C76.7326 81.3042 77 81.9458 77 82.7078C77 83.4698 76.7326 84.1248 76.1979 84.6595C75.6632 85.1943 75.0082 85.475 74.2462 85.475C73.1634 85.475 72.1073 85.2611 71.0913 84.8333C70.0887 84.4189 69.1931 83.8174 68.4177 83.042C67.6424 82.2667 67.0542 81.371 66.6264 80.355C66.212 79.3524 65.9981 78.2964 65.9981 77.1868V71.6792C65.9981 70.9439 65.8644 70.2354 65.5837 69.567C65.303 68.8852 64.9019 68.2837 64.3939 67.7757C63.8726 67.2543 63.2844 66.8533 62.6026 66.5726C61.9342 66.2918 61.2391 66.1582 60.5038 66.1582C59.7418 66.1582 59.1002 65.8908 58.5655 65.3427C58.0307 64.808 57.75 64.1529 57.75 63.391C57.75 62.629 58.0307 61.9873 58.5655 61.4392C59.1002 60.9045 59.7418 60.6372 60.5038 60.6372C61.2391 60.6372 61.9342 60.5035 62.6026 60.2227C63.2844 59.942 63.8726 59.541 64.3939 59.0196C64.9153 58.4983 65.303 57.9101 65.5837 57.2283C65.8644 56.5599 65.9981 55.8514 65.9981 55.1161V49.5951C65.9981 48.499 66.212 47.4429 66.6264 46.4269C67.0542 45.4243 67.6424 44.5286 68.4177 43.7533C69.1931 42.978 70.0887 42.3764 71.0913 41.9486C72.1073 41.5342 73.1634 41.3203 74.2462 41.3203C75.0082 41.3203 75.6632 41.5877 76.1979 42.1358C76.7326 42.6705 77 43.3255 77 44.0875C77 44.8495 76.7326 45.4911 76.1979 46.0392C75.6632 46.574 75.0082 46.8413 74.2462 46.8413C73.4976 46.8413 72.8425 47.1087 72.3078 47.6434C71.7731 48.1915 71.5057 48.8332 71.5057 49.5951V55.1161C71.479 58.4582 70.2224 61.212 67.7092 63.391C70.2224 65.5833 71.479 68.3372 71.5057 71.6792Z" fill="black"/>
<path d="M131.983 66.1582C131.248 66.1582 130.552 66.2918 129.884 66.5726C129.202 66.8533 128.614 67.2543 128.093 67.7757C127.585 68.2837 127.184 68.8852 126.903 69.567C126.622 70.2354 126.489 70.9439 126.489 71.6792V77.1868C126.489 78.2964 126.275 79.3524 125.86 80.355C125.432 81.371 124.844 82.2667 124.069 83.042C123.294 83.8174 122.398 84.4189 121.395 84.8333C120.379 85.2611 119.337 85.475 118.24 85.475C117.478 85.475 116.823 85.1943 116.289 84.6595C115.754 84.1248 115.487 83.4698 115.487 82.7078C115.487 81.9458 115.754 81.3042 116.289 80.7561C116.823 80.2214 117.478 79.954 118.24 79.954C119.002 79.954 119.644 79.6866 120.179 79.1385C120.714 78.6038 120.981 77.9488 120.981 77.1868V71.6792C121.008 68.3372 122.264 65.5833 124.777 63.391C122.264 61.212 121.008 58.4582 120.981 55.1161V49.5951C120.981 48.8332 120.714 48.1915 120.179 47.6434C119.644 47.1087 119.002 46.8413 118.24 46.8413C117.478 46.8413 116.823 46.574 116.289 46.0392C115.754 45.4911 115.487 44.8495 115.487 44.0875C115.487 43.3255 115.754 42.6705 116.289 42.1358C116.823 41.5877 117.478 41.3203 118.24 41.3203C119.337 41.3203 120.379 41.5342 121.395 41.9486C122.398 42.3764 123.294 42.978 124.069 43.7533C124.844 44.5286 125.432 45.4243 125.86 46.4269C126.275 47.4429 126.489 48.499 126.489 49.5951V55.1161C126.489 55.8514 126.622 56.5599 126.903 57.2283C127.184 57.9101 127.585 58.4983 128.093 59.0196C128.614 59.541 129.202 59.942 129.884 60.2227C130.552 60.5035 131.248 60.6372 131.983 60.6372C132.745 60.6372 133.386 60.9045 133.921 61.4392C134.469 61.9873 134.737 62.629 134.737 63.391C134.737 64.1529 134.469 64.808 133.921 65.3427C133.386 65.8908 132.745 66.1582 131.983 66.1582Z" fill="black"/>
<mask id="mask0_10027_352" style="mask-type:luminance" maskUnits="userSpaceOnUse" x="0" y="22" width="154" height="111">
<path d="M154 22.0039H3.8147e-06V132.371H154V22.0039Z" fill="white"/>
</mask>
<g mask="url(#mask0_10027_352)">
<path d="M5.521 110.3H8.27482V24.7711C8.27482 24.0091 8.54218 23.3541 9.07691 22.8194C9.61163 22.2846 10.2667 22.0039 11.0153 22.0039H142.985C143.733 22.0039 144.388 22.2846 144.923 22.8194C145.458 23.3541 145.725 24.0091 145.725 24.7711V110.3H148.479C149.201 110.3 149.909 110.447 150.578 110.728C151.26 111.008 151.848 111.396 152.369 111.917C152.877 112.439 153.278 113.027 153.559 113.709C153.84 114.391 153.973 115.086 153.973 115.821V118.575C153.973 119.484 153.893 120.379 153.706 121.275C153.532 122.157 153.278 123.026 152.931 123.855C152.583 124.697 152.155 125.486 151.661 126.248C151.153 126.997 150.591 127.692 149.949 128.333C149.308 128.975 148.613 129.55 147.864 130.045C147.115 130.553 146.327 130.98 145.485 131.328C144.656 131.675 143.8 131.929 142.918 132.117C142.022 132.29 141.127 132.371 140.231 132.371H13.7691C12.8734 132.371 11.9778 132.29 11.0821 132.117C10.1998 131.929 9.34427 131.675 8.51545 131.328C7.67326 130.98 6.88454 130.553 6.13593 130.045C5.38732 129.55 4.69218 128.975 4.05052 128.333C3.40885 127.692 2.84739 126.997 2.33941 126.248C1.84478 125.486 1.41701 124.697 1.06944 123.855C0.721873 123.026 0.467877 122.157 0.294093 121.275C0.106939 120.379 0.0267319 119.484 0.0267319 118.575V115.821C0.0267319 115.086 0.160413 114.391 0.441142 113.709C0.721873 113.027 1.12291 112.439 1.6309 111.917C2.15225 111.396 2.74045 111.008 3.42222 110.728C4.09062 110.447 4.79913 110.3 5.521 110.3ZM30.2653 88.2293C30.9872 88.2293 31.6957 88.0956 32.3641 87.8148C33.0458 87.5341 33.634 87.1331 34.1554 86.6117C34.6634 86.0904 35.0644 85.5022 35.3451 84.8204C35.6259 84.152 35.7595 83.4435 35.7595 82.7082C35.7595 81.973 35.6259 81.2779 35.3451 80.5961C35.0644 79.9277 34.6634 79.3261 34.1554 78.8048C33.634 78.2968 33.0458 77.8957 32.3641 77.615C31.6957 77.3343 30.9872 77.1872 30.2653 77.1872C29.53 77.1872 28.8349 77.3343 28.1665 77.615C27.4847 77.8957 26.8965 78.2968 26.3752 78.8048C25.8672 79.3261 25.4661 79.9277 25.1854 80.5961C24.9047 81.2779 24.771 81.973 24.771 82.7082C24.771 83.4435 24.9047 84.152 25.1854 84.8204C25.4661 85.5022 25.8672 86.0904 26.3752 86.6117C26.8965 87.1331 27.4847 87.5341 28.1665 87.8148C28.8349 88.0956 29.53 88.2293 30.2653 88.2293ZM35.0778 92.5872C33.5672 93.3626 31.963 93.7503 30.2653 93.7503C28.5675 93.7503 26.9634 93.3626 25.4528 92.5872C24.3833 93.3626 23.5411 94.3385 22.9396 95.5148C22.3247 96.6912 22.0306 97.9478 22.0172 99.2713H38.5134C38.5 97.9478 38.1925 96.6912 37.591 95.5148C36.9894 94.3385 36.1472 93.3626 35.0778 92.5872ZM21.3354 88.9511C20.5734 87.8416 20.0387 86.6251 19.7179 85.315C19.397 84.0049 19.3302 82.6949 19.4906 81.3581C19.651 80.0213 20.0521 78.7513 20.6804 77.5615C21.2953 76.3718 22.1108 75.3291 23.1134 74.4334C24.1293 73.5511 25.2523 72.8694 26.5089 72.3881C27.7654 71.9069 29.0622 71.6662 30.399 71.6662C31.7491 71.6662 33.0458 71.9069 34.2891 72.3881C35.5457 72.8694 36.6819 73.5511 37.6845 74.4334C38.6872 75.3291 39.5026 76.3718 40.1309 77.5615C40.7592 78.7513 41.1469 80.0213 41.3207 81.3581C41.4811 82.6949 41.4009 84.0049 41.0934 85.315C40.7726 86.6251 40.2378 87.8416 39.4759 88.9511C40.933 90.2612 42.0693 91.8119 42.858 93.6166C43.6467 95.4079 44.0344 97.2928 44.0076 99.2713H46.7615V66.1586H13.7691V99.2713H16.5229C16.5095 97.2928 16.924 95.3945 17.7394 93.5898C18.5549 91.7985 19.7045 90.2478 21.1884 88.9511H21.3354ZM30.2653 49.5956C30.9872 49.5956 31.6957 49.4619 32.3641 49.1812C33.0458 48.9004 33.634 48.4994 34.1554 47.9914C34.6634 47.4701 35.0644 46.8685 35.3451 46.2001C35.6259 45.5183 35.7595 44.8098 35.7595 44.0879C35.7595 43.3527 35.6259 42.6442 35.3451 41.9758C35.0644 41.294 34.6634 40.6924 34.1554 40.1845C33.634 39.6631 33.0458 39.2621 32.3641 38.9813C31.6957 38.7006 30.9872 38.5669 30.2653 38.5669C29.53 38.5669 28.8349 38.7006 28.1665 38.9813C27.4847 39.2621 26.8965 39.6631 26.3752 40.1845C25.8672 40.6924 25.4661 41.294 25.1854 41.9758C24.9047 42.6442 24.771 43.3527 24.771 44.0879C24.771 44.8098 24.9047 45.5183 25.1854 46.2001C25.4661 46.8685 25.8672 47.4701 26.3752 47.9914C26.8965 48.4994 27.4847 48.9004 28.1665 49.1812C28.8349 49.4619 29.53 49.5956 30.2653 49.5956ZM35.0778 53.9669C33.5672 54.7289 31.963 55.1166 30.2653 55.1166C28.5675 55.1166 26.9634 54.7289 25.4528 53.9669C24.3833 54.7289 23.5411 55.7048 22.9396 56.8812C22.3247 58.0576 22.0306 59.3142 22.0172 60.6376H38.5134C38.5 59.3142 38.1925 58.0576 37.591 56.8812C36.9894 55.7048 36.1472 54.7289 35.0778 53.9669ZM13.7691 27.5249V60.6376H16.5229C16.5095 58.6591 16.924 56.7742 17.7394 54.9695C18.5549 53.1648 19.7045 51.6141 21.1884 50.3174C20.4398 49.2079 19.8917 48.0048 19.5842 46.6947C19.2634 45.3846 19.1832 44.0612 19.3569 42.7244C19.5174 41.3876 19.905 40.131 20.5333 38.9412C21.1616 37.7381 21.9771 36.7088 22.9797 35.8131C23.9823 34.9174 25.1186 34.2357 26.3752 33.7544C27.6318 33.2865 28.9285 33.0459 30.2653 33.0459C31.6021 33.0459 32.8988 33.2865 34.1554 33.7544C35.412 34.2357 36.5483 34.9174 37.5509 35.8131C38.5535 36.7088 39.3689 37.7381 39.9972 38.9412C40.6122 40.131 41.0132 41.3876 41.1736 42.7244C41.3474 44.0612 41.2672 45.3846 40.9464 46.6947C40.6389 48.0048 40.0908 49.2079 39.3422 50.3174C40.826 51.6141 41.9757 53.1648 42.7911 54.9695C43.6066 56.7742 44.021 58.6591 44.0076 60.6376H46.7615V27.5249H13.7691ZM52.2557 27.5249V99.2713H140.231V27.5249H52.2557ZM140.231 104.779H13.7691V110.3H55.0095C55.7715 110.3 56.4132 110.567 56.9613 111.102L61.6267 115.821H92.3733L97.0387 111.102C97.5868 110.567 98.2285 110.3 98.9905 110.3H140.231V104.779ZM5.521 118.575C5.521 119.684 5.73489 120.74 6.1493 121.743C6.56371 122.759 7.16528 123.655 7.94062 124.43C8.71597 125.205 9.59826 125.807 10.6142 126.221C11.6302 126.649 12.6729 126.863 13.7691 126.863H140.231C141.327 126.863 142.37 126.649 143.386 126.221C144.402 125.807 145.284 125.205 146.059 124.43C146.835 123.655 147.436 122.759 147.851 121.743C148.265 120.74 148.479 119.684 148.479 118.575V115.821H100.127L95.4479 120.54C94.8998 121.075 94.2582 121.342 93.4962 121.342H60.5038C59.7418 121.342 59.1002 121.075 58.5521 120.54L53.8733 115.821H5.521V118.575Z" fill="black"/>
</g>
</g>
<defs>
<clipPath id="clip0_10027_352">
<rect width="154" height="154" fill="white" transform="matrix(-1 0 0 1 154 0)"/>
</clipPath>
</defs>
</svg>
