<svg width="215" height="180" viewBox="0 0 215 180" fill="none" xmlns="http://www.w3.org/2000/svg">
<mask id="mask0_9930_366" style="mask-type:luminance" maskUnits="userSpaceOnUse" x="32" y="28" width="146" height="144">
<path d="M177.5 28H32.6406V171.203H177.5V28Z" fill="white"/>
</mask>
<g mask="url(#mask0_9930_366)">
<path d="M34.6094 170.953H173.547C174.625 170.953 175.5 170.078 175.5 169V32.875C175.5 31.7969 174.625 30.9219 173.547 30.9219C172.484 30.9219 171.609 31.7969 171.609 32.875V167.047H34.6094C33.5312 167.047 32.6562 167.922 32.6562 169C32.6562 170.078 33.5312 170.953 34.6094 170.953Z" fill="white"/>
</g>
<path d="M44.8594 128.281H79.375C80.4531 128.281 81.3281 127.406 81.3281 126.312C81.3281 125.25 80.4531 124.375 79.375 124.375H44.8594C43.7969 124.375 42.9219 125.25 42.9219 126.312C42.9219 127.406 43.7969 128.281 44.8594 128.281Z" fill="white"/>
<path d="M44.8594 142.391H79.375C80.4531 142.391 81.3281 141.516 81.3281 140.438C81.3281 139.359 80.4531 138.484 79.375 138.484H44.8594C43.7969 138.484 42.9219 139.359 42.9219 140.438C42.9219 141.516 43.7969 142.391 44.8594 142.391Z" fill="white"/>
<path d="M44.8594 156.516H79.375C80.4531 156.516 81.3281 155.641 81.3281 154.562C81.3281 153.469 80.4531 152.609 79.375 152.609H44.8594C43.7969 152.609 42.9219 153.469 42.9219 154.562C42.9219 155.641 43.7969 156.516 44.8594 156.516Z" fill="white"/>
<mask id="mask1_9930_366" style="mask-type:luminance" maskUnits="userSpaceOnUse" x="45" y="9" width="29" height="23">
<path d="M73.5 9.20312H45.5V32H73.5V9.20312Z" fill="white"/>
</mask>
<g mask="url(#mask1_9930_366)">
<path d="M58.5781 13.3594C62.5625 13.3594 65.8125 16.625 65.8125 20.625C65.8125 24.6406 62.5625 27.9062 58.5781 27.9062C54.5938 27.9062 51.3438 24.6406 51.3438 20.625C51.3438 16.625 54.5938 13.3594 58.5781 13.3594ZM58.5781 31.8125C64.7188 31.8125 69.7031 26.7969 69.7031 20.625C69.7031 14.4688 64.7188 9.45312 58.5781 9.45312C52.4531 9.45312 47.4531 14.4688 47.4531 20.625C47.4531 26.7969 52.4531 31.8125 58.5781 31.8125Z" fill="white"/>
</g>
<path d="M65.1562 105.938C66.2188 105.938 67.0938 105.062 67.0938 103.984V71.9688C67.0938 70.8906 66.2188 70.0156 65.1562 70.0156C64.0781 70.0156 63.2031 70.8906 63.2031 71.9688V103.984C63.2031 105.062 64.0781 105.938 65.1562 105.938Z" fill="white"/>
<path d="M52.0156 105.391C53.0938 105.391 53.9531 104.516 53.9531 103.438V71.9688C53.9531 70.8906 53.0938 70.0156 52.0156 70.0156C50.9375 70.0156 50.0625 70.8906 50.0625 71.9688V103.438C50.0625 104.516 50.9375 105.391 52.0156 105.391Z" fill="white"/>
<path d="M65.3594 57.4219H83.0469C84.125 57.4219 85 56.5469 85 55.4688C85 54.3906 84.125 53.5156 83.0469 53.5156H65.3594C62.6875 53.5156 60.5156 51.3438 60.5156 48.6562V44.8125C60.5156 43.7344 59.6562 42.8594 58.5781 42.8594C57.5 42.8594 56.6406 43.7344 56.6406 44.8125V48.6562C56.6406 53.5 60.5469 57.4219 65.3594 57.4219Z" fill="white"/>
<path d="M52.0156 114.156C53.0938 114.156 53.9531 113.281 53.9531 112.203V105.391H62.1406C65.875 105.391 68.9219 108.453 68.9219 112.203C68.9219 113.281 69.7812 114.156 70.8594 114.156C71.9375 114.156 72.8125 113.281 72.8125 112.203C72.8125 106.297 68.0156 101.484 62.1406 101.484H52.0156C50.9375 101.484 50.0625 102.359 50.0625 103.438V112.203C50.0625 113.281 50.9375 114.156 52.0156 114.156Z" fill="white"/>
<path d="M52.0156 73.9219H65.1562C65.8594 73.9219 66.5312 73.5156 66.8594 72.875C68.8125 69.2188 70.125 65.2656 70.7344 61.1562C70.9062 60.0938 70.1719 59.0938 69.1094 58.9375C68.0625 58.7812 67.0625 59.5 66.8906 60.5781C66.3906 63.8594 65.4062 67.0312 63.9531 70.0156H53.2031C51.0312 65.5312 49.8906 60.5781 49.8906 55.6094V46.0312C49.8906 41.2188 53.7969 37.2969 58.5781 37.2969C63.375 37.2969 67.2656 41.2188 67.2656 46.0312V50.4688C67.2656 51.5469 68.1406 52.4219 69.2188 52.4219C70.2812 52.4219 71.1562 51.5469 71.1562 50.4688V46.0312C71.1562 39.0625 65.5156 33.3906 58.5781 33.3906C51.6406 33.3906 46 39.0625 46 46.0312V55.6094C46 61.6094 47.4844 67.5781 50.2969 72.875C50.6406 73.5156 51.2969 73.9219 52.0156 73.9219Z" fill="white"/>
<mask id="mask2_9930_366" style="mask-type:luminance" maskUnits="userSpaceOnUse" x="41" y="108" width="41" height="64">
<path d="M81.5 108H41.5V171.203H81.5V108Z" fill="white"/>
</mask>
<g mask="url(#mask2_9930_366)">
<path d="M44.8594 170.953C45.9375 170.953 46.8125 170.078 46.8125 169V114.156H77.4375V169C77.4375 170.078 78.3125 170.953 79.375 170.953C80.4531 170.953 81.3281 170.078 81.3281 169V112.203C81.3281 111.125 80.4531 110.25 79.375 110.25H44.8594C43.7969 110.25 42.9219 111.125 42.9219 112.203V169C42.9219 170.078 43.7969 170.953 44.8594 170.953Z" fill="white"/>
</g>
<mask id="mask3_9930_366" style="mask-type:luminance" maskUnits="userSpaceOnUse" x="161" y="20" width="22" height="12">
<path d="M182.641 20H161.5V32H182.641V20Z" fill="white"/>
</mask>
<g mask="url(#mask3_9930_366)">
<path d="M180.516 31.8906C181.016 31.8906 181.516 31.7031 181.891 31.3281C182.656 30.5625 182.656 29.3281 181.891 28.5625L174.813 21.4531C174.453 21.0938 173.953 20.875 173.438 20.875C172.922 20.875 172.422 21.0938 172.063 21.4531L165.203 28.375C164.453 29.1406 164.453 30.375 165.219 31.125C165.969 31.8906 167.203 31.8906 167.953 31.125L173.438 25.5938L179.141 31.3281C179.531 31.7031 180.016 31.8906 180.516 31.8906Z" fill="white"/>
</g>
<path d="M94.0469 57.4227C94.625 57.4227 95.2031 57.1571 95.5937 56.6571L100.281 50.4227L106.687 55.329C107.547 55.9852 108.766 55.8134 109.422 54.954C110.078 54.0946 109.906 52.8759 109.047 52.2196L101.078 46.1415C100.672 45.829 100.156 45.6884 99.6406 45.7509C99.125 45.829 98.6719 46.0946 98.3594 46.5165L92.4844 54.2977C91.8438 55.1571 92.0156 56.3759 92.8594 57.0321C93.2188 57.2977 93.625 57.4227 94.0469 57.4227Z" fill="white"/>
<mask id="mask4_9930_366" style="mask-type:luminance" maskUnits="userSpaceOnUse" x="161" y="40" width="22" height="8">
<path d="M182.641 40H161.5V48H182.641V40Z" fill="white"/>
</mask>
<g mask="url(#mask4_9930_366)">
<path d="M166.578 46.7031H180.516C181.594 46.7031 182.469 45.8281 182.469 44.75C182.469 43.6719 181.594 42.7969 180.516 42.7969H166.578C165.5 42.7969 164.641 43.6719 164.641 44.75C164.641 45.8281 165.5 46.7031 166.578 46.7031Z" fill="white"/>
</g>
<mask id="mask5_9930_366" style="mask-type:luminance" maskUnits="userSpaceOnUse" x="161" y="60" width="22" height="8">
<path d="M182.641 60H161.5V68H182.641V60Z" fill="white"/>
</mask>
<g mask="url(#mask5_9930_366)">
<path d="M166.578 67.7031H180.516C181.594 67.7031 182.469 66.8281 182.469 65.75C182.469 64.6719 181.594 63.7969 180.516 63.7969H166.578C165.5 63.7969 164.641 64.6719 164.641 65.75C164.641 66.8281 165.5 67.7031 166.578 67.7031Z" fill="white"/>
</g>
<mask id="mask6_9930_366" style="mask-type:luminance" maskUnits="userSpaceOnUse" x="161" y="84" width="22" height="8">
<path d="M182.641 84H161.5V92H182.641V84Z" fill="white"/>
</mask>
<g mask="url(#mask6_9930_366)">
<path d="M166.578 88.7031H180.516C181.594 88.7031 182.469 87.8281 182.469 86.75C182.469 85.6719 181.594 84.7969 180.516 84.7969H166.578C165.5 84.7969 164.641 85.6719 164.641 86.75C164.641 87.8281 165.5 88.7031 166.578 88.7031Z" fill="white"/>
</g>
<mask id="mask7_9930_366" style="mask-type:luminance" maskUnits="userSpaceOnUse" x="161" y="104" width="22" height="8">
<path d="M182.641 104H161.5V112H182.641V104Z" fill="white"/>
</mask>
<g mask="url(#mask7_9930_366)">
<path d="M166.578 109.703H180.516C181.594 109.703 182.469 108.828 182.469 107.75C182.469 106.672 181.594 105.797 180.516 105.797H166.578C165.5 105.797 164.641 106.672 164.641 107.75C164.641 108.828 165.5 109.703 166.578 109.703Z" fill="white"/>
</g>
<mask id="mask8_9930_366" style="mask-type:luminance" maskUnits="userSpaceOnUse" x="161" y="124" width="22" height="8">
<path d="M182.641 124H161.5V132H182.641V124Z" fill="white"/>
</mask>
<g mask="url(#mask8_9930_366)">
<path d="M166.578 130.703H180.516C181.594 130.703 182.469 129.812 182.469 128.734C182.469 127.656 181.594 126.781 180.516 126.781H166.578C165.5 126.781 164.641 127.656 164.641 128.734C164.641 129.812 165.5 130.703 166.578 130.703Z" fill="white"/>
</g>
<mask id="mask9_9930_366" style="mask-type:luminance" maskUnits="userSpaceOnUse" x="161" y="144" width="22" height="8">
<path d="M182.641 144H161.5V152H182.641V144Z" fill="white"/>
</mask>
<g mask="url(#mask9_9930_366)">
<path d="M166.578 151.688H180.516C181.594 151.688 182.469 150.812 182.469 149.734C182.469 148.656 181.594 147.781 180.516 147.781H166.578C165.5 147.781 164.641 148.656 164.641 149.734C164.641 150.812 165.5 151.688 166.578 151.688Z" fill="white"/>
</g>
<path d="M156.047 151.687C156.25 151.687 156.453 151.655 156.656 151.593C157.672 151.249 158.234 150.155 157.891 149.124L151.094 128.421C150.828 127.624 150.078 127.077 149.234 127.077H136.203L126.5 86.2959C126.297 85.4209 125.516 84.7959 124.609 84.7959H109.031L103.219 56.7803C103 55.7334 101.969 55.0459 100.922 55.2803C99.8594 55.499 99.1875 56.5303 99.4062 57.5928L105.547 87.1397C105.734 88.0459 106.531 88.7022 107.453 88.7022H123.078L132.766 129.483C132.969 130.358 133.766 130.983 134.656 130.983H147.844L154.203 150.343C154.469 151.171 155.234 151.687 156.047 151.687Z" fill="white"/>
<path d="M133.141 88.7031C133.656 88.7031 134.156 88.4844 134.516 88.125C134.891 87.7656 135.094 87.2656 135.094 86.75C135.094 86.2344 134.891 85.7344 134.516 85.3594C133.797 84.6406 132.5 84.6406 131.781 85.3594C131.406 85.7344 131.203 86.2344 131.203 86.75C131.203 87.25 131.406 87.7656 131.781 88.125C132.141 88.4844 132.641 88.7031 133.141 88.7031Z" fill="white"/>
<path d="M150.703 88.7031H150.719C151.797 88.7031 152.672 87.8281 152.672 86.75C152.672 85.6719 151.797 84.7969 150.719 84.7969C149.656 84.7969 148.766 85.6719 148.766 86.75C148.766 87.8281 149.625 88.7031 150.703 88.7031ZM141.922 88.7031H141.937C143.016 88.7031 143.875 87.8281 143.875 86.75C143.875 85.6719 143.016 84.7969 141.937 84.7969C140.859 84.7969 139.984 85.6719 139.984 86.75C139.984 87.8281 140.844 88.7031 141.922 88.7031Z" fill="white"/>
<path d="M159.5 88.7031C160.016 88.7031 160.531 88.4844 160.891 88.125C161.25 87.7656 161.438 87.25 161.438 86.75C161.438 86.2344 161.25 85.7344 160.891 85.3594C160.156 84.6406 158.859 84.6406 158.125 85.3594C157.766 85.7344 157.562 86.2344 157.562 86.75C157.562 87.25 157.766 87.7656 158.125 88.125C158.5 88.4844 159 88.7031 159.5 88.7031Z" fill="white"/>
<path d="M113.438 46.7031C113.953 46.7031 114.438 46.5 114.812 46.1406C115.172 45.7656 115.375 45.25 115.375 44.75C115.375 44.2344 115.172 43.7344 114.812 43.375C114.078 42.6406 112.781 42.6406 112.062 43.375C111.688 43.7344 111.484 44.2344 111.484 44.75C111.484 45.25 111.688 45.7656 112.062 46.1406C112.422 46.5 112.922 46.7031 113.438 46.7031Z" fill="white"/>
<path d="M153.703 44.75C153.703 43.6719 152.844 42.7969 151.766 42.7969C150.688 42.7969 149.812 43.6719 149.812 44.75C149.812 45.8281 150.688 46.7031 151.766 46.7031C152.844 46.7031 153.703 45.8281 153.703 44.75ZM146.047 44.75C146.047 43.6719 145.172 42.7969 144.094 42.7969C143.031 42.7969 142.156 43.6719 142.156 44.75C142.156 45.8281 143.031 46.7031 144.094 46.7031C145.172 46.7031 146.047 45.8281 146.047 44.75ZM138.375 44.75C138.375 43.6719 137.5 42.7969 136.438 42.7969C135.359 42.7969 134.484 43.6719 134.484 44.75C134.484 45.8281 135.359 46.7031 136.438 46.7031C137.5 46.7031 138.375 45.8281 138.375 44.75ZM130.703 44.75C130.703 43.6719 129.844 42.7969 128.766 42.7969C127.688 42.7969 126.828 43.6719 126.828 44.75C126.828 45.8281 127.688 46.7031 128.766 46.7031C129.844 46.7031 130.703 45.8281 130.703 44.75ZM123.047 44.75C123.047 43.6719 122.188 42.7969 121.109 42.7969C120.031 42.7969 119.141 43.6719 119.141 44.75C119.141 45.8281 120.031 46.7031 121.109 46.7031C122.188 46.7031 123.047 45.8281 123.047 44.75Z" fill="white"/>
<path d="M159.5 46.7031C160.016 46.7031 160.516 46.5 160.891 46.1406C161.25 45.7656 161.438 45.25 161.438 44.75C161.438 44.2344 161.25 43.7344 160.891 43.375C160.156 42.6406 158.859 42.6406 158.125 43.375C157.766 43.7344 157.562 44.2344 157.562 44.75C157.562 45.25 157.766 45.7656 158.125 46.1406C158.5 46.5 159 46.7031 159.5 46.7031Z" fill="white"/>
</svg>
