<svg xmlns="http://www.w3.org/2000/svg" xmlns:xlink="http://www.w3.org/1999/xlink" width="700" zoomAndPan="magnify" viewBox="0 0 525 135.000003" height="180" preserveAspectRatio="xMidYMid meet" version="1.0"><defs><clipPath id="2fe557e09c"><path d="M 25.402344 10.871094 L 82 10.871094 L 82 95 L 25.402344 95 Z M 25.402344 10.871094 " clip-rule="nonzero"/></clipPath><clipPath id="9a603bfa26"><path d="M 485 28 L 499.636719 28 L 499.636719 88 L 485 88 Z M 485 28 " clip-rule="nonzero"/></clipPath></defs><g clip-path="url(#2fe557e09c)"><path fill="#ffffff" d="M 67.195312 66.660156 C 59.503906 66.660156 53.269531 60.417969 53.261719 52.71875 C 53.261719 45.015625 59.492188 38.765625 67.195312 38.765625 C 74.894531 38.765625 81.128906 32.523438 81.128906 24.8125 C 81.128906 17.105469 74.886719 10.871094 67.195312 10.871094 C 59.503906 10.871094 53.261719 17.113281 53.261719 24.824219 C 53.261719 32.53125 47.027344 38.773438 39.328125 38.773438 C 31.625 38.773438 25.402344 45.015625 25.402344 52.71875 C 25.402344 60.417969 31.632812 66.667969 39.335938 66.667969 C 47.027344 66.667969 53.261719 72.910156 53.261719 80.621094 C 53.261719 88.328125 59.492188 94.570312 67.195312 94.570312 C 74.894531 94.570312 81.128906 88.328125 81.128906 80.621094 C 81.128906 72.910156 74.894531 66.667969 67.195312 66.667969 Z M 67.195312 66.660156 " fill-opacity="1" fill-rule="nonzero"/></g><path fill="#ffffff" d="M 95.054688 94.554688 C 102.746094 94.554688 108.980469 88.3125 108.988281 80.609375 C 108.988281 72.910156 102.753906 66.660156 95.054688 66.660156 C 87.351562 66.660156 81.121094 60.417969 81.121094 52.707031 C 81.121094 45 87.351562 38.757812 95.054688 38.757812 C 102.753906 38.757812 108.988281 45 108.988281 52.707031 C 108.988281 60.410156 115.222656 66.660156 122.921875 66.660156 C 130.613281 66.660156 136.855469 72.902344 136.855469 80.609375 C 136.855469 88.3125 130.621094 94.5625 122.921875 94.5625 C 115.230469 94.5625 108.996094 100.804688 108.996094 108.511719 C 108.996094 116.214844 102.761719 122.464844 95.0625 122.464844 C 87.363281 122.464844 81.128906 116.222656 81.128906 108.511719 C 81.128906 100.8125 87.363281 94.5625 95.0625 94.5625 Z M 95.054688 94.554688 " fill-opacity="1" fill-rule="nonzero"/><path fill="#ffffff" d="M 390.890625 28.363281 L 390.890625 35.460938 L 371.460938 35.460938 C 370.128906 35.460938 368.863281 35.703125 367.664062 36.191406 C 366.464844 36.675781 365.425781 37.347656 364.539062 38.203125 C 363.652344 39.066406 362.957031 40.074219 362.453125 41.230469 C 361.949219 42.390625 361.699219 43.613281 361.699219 44.90625 C 361.699219 46.199219 361.949219 47.40625 362.453125 48.539062 C 362.957031 49.671875 363.652344 50.660156 364.539062 51.527344 C 365.425781 52.390625 366.464844 53.0625 367.664062 53.539062 C 368.863281 54.027344 370.128906 54.261719 371.460938 54.261719 L 376.628906 54.261719 C 378.96875 54.261719 381.171875 54.6875 383.257812 55.550781 C 385.34375 56.417969 387.144531 57.597656 388.679688 59.101562 C 390.203125 60.609375 391.417969 62.363281 392.304688 64.386719 C 393.195312 66.398438 393.636719 68.539062 393.636719 70.804688 C 393.636719 73.070312 393.195312 75.199219 392.304688 77.222656 C 391.417969 79.234375 390.210938 80.988281 388.679688 82.464844 C 387.144531 83.941406 385.34375 85.117188 383.257812 85.972656 C 381.171875 86.835938 378.957031 87.261719 376.628906 87.261719 L 357.117188 87.261719 L 357.117188 80.242188 L 376.628906 80.242188 C 377.960938 80.242188 379.226562 80 380.425781 79.511719 C 381.625 79.023438 382.644531 78.355469 383.507812 77.5 C 384.371094 76.644531 385.066406 75.628906 385.59375 74.46875 C 386.121094 73.3125 386.390625 72.085938 386.390625 70.796875 C 386.390625 69.503906 386.121094 68.277344 385.59375 67.121094 C 385.066406 65.964844 384.371094 64.957031 383.507812 64.09375 C 382.644531 63.238281 381.613281 62.558594 380.425781 62.078125 C 379.226562 61.59375 377.96875 61.347656 376.628906 61.347656 L 371.460938 61.347656 C 369.121094 61.347656 366.917969 60.921875 364.832031 60.058594 C 362.746094 59.203125 360.925781 58.027344 359.371094 56.550781 C 357.8125 55.074219 356.585938 53.320312 355.699219 51.308594 C 354.8125 49.292969 354.367188 47.15625 354.367188 44.890625 C 354.367188 42.625 354.8125 40.425781 355.699219 38.4375 C 356.585938 36.449219 357.8125 34.707031 359.371094 33.195312 C 360.925781 31.695312 362.746094 30.503906 364.832031 29.644531 C 366.917969 28.789062 369.121094 28.355469 371.460938 28.355469 L 390.890625 28.355469 Z M 390.890625 28.363281 " fill-opacity="1" fill-rule="nonzero"/><path fill="#ffffff" d="M 402.964844 28.363281 L 410.050781 28.363281 L 410.050781 62.707031 L 427.230469 45.511719 L 437.234375 45.511719 L 416.386719 66.382812 L 437.234375 87.253906 L 427.230469 87.253906 L 410.050781 70.058594 L 410.050781 87.253906 L 402.964844 87.253906 Z M 402.964844 28.363281 " fill-opacity="1" fill-rule="nonzero"/><path fill="#ffffff" d="M 451.257812 45.511719 L 444.085938 45.511719 L 444.085938 87.253906 L 451.257812 87.253906 Z M 451.257812 45.511719 " fill-opacity="1" fill-rule="nonzero"/><path fill="#ffffff" d="M 463.867188 28.398438 L 470.957031 28.398438 L 470.957031 75.570312 C 470.957031 76.851562 471.550781 77.933594 472.75 78.824219 C 473.949219 79.714844 475.382812 80.160156 477.046875 80.160156 L 477.046875 87.253906 C 475.214844 87.253906 473.503906 86.945312 471.921875 86.332031 C 470.335938 85.71875 468.945312 84.890625 467.75 83.824219 C 466.550781 82.769531 465.613281 81.527344 464.917969 80.109375 C 464.222656 78.691406 463.878906 77.171875 463.878906 75.5625 L 463.878906 28.398438 Z M 463.867188 28.398438 " fill-opacity="1" fill-rule="nonzero"/><g clip-path="url(#9a603bfa26)"><path fill="#ffffff" d="M 485.855469 28.398438 L 492.941406 28.398438 L 492.941406 75.570312 C 492.941406 76.851562 493.539062 77.933594 494.734375 78.824219 C 495.933594 79.714844 497.367188 80.160156 499.035156 80.160156 L 499.035156 87.253906 C 497.199219 87.253906 495.492188 86.945312 493.90625 86.332031 C 492.324219 85.71875 490.933594 84.890625 489.734375 83.824219 C 488.535156 82.769531 487.597656 81.527344 486.902344 80.109375 C 486.207031 78.691406 485.863281 77.171875 485.863281 75.5625 L 485.863281 28.398438 Z M 485.855469 28.398438 " fill-opacity="1" fill-rule="nonzero"/></g><path fill="#ffffff" d="M 162.34375 87.148438 L 162.34375 28.398438 L 182.277344 28.398438 C 185.226562 28.398438 188 28.960938 190.597656 30.082031 C 193.195312 31.207031 195.457031 32.742188 197.390625 34.671875 C 199.320312 36.601562 200.851562 38.875 201.972656 41.476562 C 203.097656 44.078125 203.660156 46.851562 203.660156 49.804688 L 203.660156 65.746094 C 203.660156 68.699219 203.097656 71.476562 201.972656 74.078125 C 200.851562 76.675781 199.320312 78.941406 197.390625 80.878906 C 195.464844 82.808594 193.195312 84.34375 190.597656 85.46875 C 188 86.59375 185.226562 87.15625 182.277344 87.15625 L 162.34375 87.15625 Z M 169.339844 80.140625 L 182.285156 80.140625 C 184.261719 80.140625 186.128906 79.765625 187.875 79.019531 C 189.617188 78.261719 191.140625 77.230469 192.457031 75.921875 C 193.773438 74.605469 194.800781 73.078125 195.546875 71.332031 C 196.292969 69.589844 196.671875 67.726562 196.671875 65.738281 L 196.671875 49.796875 C 196.671875 47.816406 196.292969 45.949219 195.546875 44.203125 C 194.792969 42.457031 193.761719 40.9375 192.457031 39.65625 C 191.140625 38.371094 189.617188 37.347656 187.875 36.59375 C 186.128906 35.847656 184.269531 35.46875 182.285156 35.46875 L 169.339844 35.46875 Z M 169.339844 80.140625 " fill-opacity="1" fill-rule="nonzero"/><path fill="#ffffff" d="M 230.832031 87.253906 C 227.941406 87.253906 225.21875 86.703125 222.671875 85.601562 C 220.121094 84.503906 217.902344 83.003906 216 81.097656 C 214.097656 79.195312 212.597656 76.980469 211.5 74.453125 C 210.402344 71.929688 209.851562 69.21875 209.851562 66.324219 C 209.851562 63.429688 210.402344 60.6875 211.5 58.113281 C 212.597656 55.535156 214.097656 53.3125 216 51.433594 C 217.902344 49.554688 220.121094 48.070312 222.671875 46.972656 C 225.21875 45.871094 227.933594 45.316406 230.832031 45.316406 C 233.730469 45.316406 236.445312 45.871094 238.992188 46.972656 C 241.539062 48.070312 243.75 49.5625 245.628906 51.433594 C 247.503906 53.3125 248.988281 55.535156 250.09375 58.113281 C 251.191406 60.6875 251.746094 63.421875 251.746094 66.324219 L 251.746094 67.53125 C 251.746094 67.960938 251.695312 68.691406 251.585938 69.707031 L 217.257812 69.707031 C 217.632812 71.265625 218.246094 72.683594 219.109375 73.96875 C 219.964844 75.257812 220.984375 76.382812 222.167969 77.347656 C 223.347656 78.3125 224.671875 79.066406 226.148438 79.605469 C 227.621094 80.140625 229.1875 80.410156 230.847656 80.410156 C 232.128906 80.410156 233.421875 80.074219 234.703125 79.402344 C 235.984375 78.730469 237.222656 77.835938 238.398438 76.710938 L 243.222656 81.542969 C 241.457031 83.261719 239.511719 84.636719 237.390625 85.6875 C 235.273438 86.734375 233.09375 87.253906 230.839844 87.253906 Z M 244.414062 62.867188 C 243.984375 61.367188 243.355469 59.957031 242.527344 58.640625 C 241.699219 57.324219 240.691406 56.199219 239.511719 55.257812 C 238.328125 54.320312 237.007812 53.582031 235.53125 53.042969 C 234.058594 52.507812 232.488281 52.238281 230.832031 52.238281 C 229.171875 52.238281 227.605469 52.507812 226.128906 53.042969 C 224.65625 53.582031 223.332031 54.320312 222.152344 55.257812 C 220.96875 56.199219 219.957031 57.324219 219.09375 58.640625 C 218.238281 59.957031 217.617188 61.367188 217.242188 62.867188 Z M 244.414062 62.867188 " fill-opacity="1" fill-rule="nonzero"/><path fill="#ffffff" d="M 278.898438 87.253906 C 276.007812 87.253906 273.285156 86.703125 270.738281 85.601562 C 268.191406 84.503906 265.972656 83.003906 264.070312 81.097656 C 262.167969 79.195312 260.667969 76.980469 259.570312 74.453125 C 258.472656 71.929688 257.917969 69.21875 257.917969 66.324219 C 257.917969 63.429688 258.472656 60.6875 259.570312 58.113281 C 260.667969 55.535156 262.167969 53.3125 264.070312 51.433594 C 265.972656 49.554688 268.191406 48.070312 270.738281 46.972656 C 273.285156 45.871094 276 45.316406 278.898438 45.316406 C 281.796875 45.316406 284.511719 45.871094 287.0625 46.972656 C 289.609375 48.070312 291.820312 49.5625 293.695312 51.433594 C 295.574219 53.3125 297.054688 55.535156 298.164062 58.113281 C 299.261719 60.6875 299.8125 63.421875 299.8125 66.324219 L 299.8125 67.53125 C 299.8125 67.960938 299.761719 68.691406 299.652344 69.707031 L 265.328125 69.707031 C 265.703125 71.265625 266.316406 72.683594 267.179688 73.96875 C 268.03125 75.257812 269.054688 76.382812 270.234375 77.347656 C 271.417969 78.3125 272.742188 79.066406 274.214844 79.605469 C 275.691406 80.140625 277.257812 80.410156 278.917969 80.410156 C 280.199219 80.410156 281.488281 80.074219 282.769531 79.402344 C 284.050781 78.730469 285.292969 77.835938 286.464844 76.710938 L 291.292969 81.542969 C 289.523438 83.261719 287.582031 84.636719 285.460938 85.6875 C 283.339844 86.734375 281.160156 87.253906 278.90625 87.253906 Z M 292.480469 62.867188 C 292.054688 61.367188 291.425781 59.957031 290.597656 58.640625 C 289.765625 57.324219 288.761719 56.199219 287.582031 55.257812 C 286.398438 54.320312 285.074219 53.582031 283.601562 53.042969 C 282.125 52.507812 280.558594 52.238281 278.898438 52.238281 C 277.242188 52.238281 275.675781 52.507812 274.199219 53.042969 C 272.726562 53.582031 271.402344 54.320312 270.21875 55.257812 C 269.039062 56.199219 268.023438 57.324219 267.160156 58.640625 C 266.304688 59.957031 265.6875 61.367188 265.308594 62.867188 Z M 292.480469 62.867188 " fill-opacity="1" fill-rule="nonzero"/><path fill="#ffffff" d="M 326.96875 45.234375 C 329.859375 45.234375 332.582031 45.789062 335.128906 46.886719 C 337.675781 47.984375 339.898438 49.480469 341.800781 51.351562 C 343.699219 53.230469 345.199219 55.453125 346.296875 58.027344 C 347.394531 60.605469 347.949219 63.339844 347.949219 66.242188 C 347.949219 69.144531 347.394531 71.84375 346.296875 74.371094 C 345.199219 76.894531 343.699219 79.101562 341.800781 81.015625 C 339.898438 82.917969 337.667969 84.421875 335.128906 85.519531 C 332.582031 86.617188 329.867188 87.171875 326.96875 87.171875 C 324.238281 87.171875 321.671875 86.703125 319.292969 85.761719 C 316.90625 84.824219 314.777344 83.496094 312.902344 81.777344 L 312.902344 104.957031 L 305.988281 104.957031 L 305.988281 66.242188 C 305.988281 63.347656 306.542969 60.605469 307.640625 58.027344 C 308.738281 55.453125 310.234375 53.230469 312.136719 51.351562 C 314.039062 49.472656 316.261719 47.984375 318.808594 46.886719 C 321.355469 45.789062 324.070312 45.234375 326.96875 45.234375 Z M 326.96875 52.15625 C 325.042969 52.15625 323.214844 52.515625 321.503906 53.246094 C 319.789062 53.96875 318.289062 54.972656 317.007812 56.265625 C 315.722656 57.550781 314.71875 59.058594 313.988281 60.769531 C 313.269531 62.492188 312.910156 64.3125 312.910156 66.242188 C 312.910156 68.171875 313.269531 70 313.988281 71.710938 C 314.710938 73.429688 315.714844 74.914062 317.007812 76.175781 C 318.296875 77.433594 319.796875 78.4375 321.503906 79.195312 C 323.222656 79.949219 325.042969 80.316406 326.96875 80.316406 C 328.894531 80.316406 330.722656 79.941406 332.429688 79.195312 C 334.148438 78.449219 335.648438 77.441406 336.929688 76.175781 C 338.222656 74.914062 339.21875 73.421875 339.949219 71.710938 C 340.667969 69.992188 341.035156 68.171875 341.035156 66.242188 C 341.035156 64.3125 340.675781 62.484375 339.949219 60.769531 C 339.226562 59.050781 338.222656 57.550781 336.929688 56.265625 C 335.648438 54.972656 334.140625 53.976562 332.429688 53.246094 C 330.714844 52.523438 328.894531 52.15625 326.96875 52.15625 Z M 326.96875 52.15625 " fill-opacity="1" fill-rule="nonzero"/></svg>