<svg id="Capa_1" data-name="Capa 1" xmlns="http://www.w3.org/2000/svg" viewBox="0 0 518.81 180"><defs><style>.cls-1{fill:#fff;}</style></defs><path class="cls-1" d="M500.15,56.68q-8.7,18.1-17.4,36.19c-8.8,18.37-16.63,37.24-28.6,53.93-8,11.2-17.33,20.86-30.77,25.53-1.28.44-2.62.71-4.18,1.12-2.15-6.62-4.21-13-6-18.59,6.15-4.13,12.22-7.72,17.67-12.07,3-2.38,5-6,7.22-9.19a5.76,5.76,0,0,0,.65-3.89c-4.24-23.27-8.58-46.52-12.88-69.78-.25-1.35-.4-2.72-.63-4.32H449.3q2.81,26.4,5.63,52.94l.68.13c.64-1.52,1.32-3,1.9-4.55C463.3,89,469.15,73.92,474.78,58.75c1-2.75,2.43-3.49,5.24-3.42,6.7.16,13.42-.09,20.13-.17Z"/><path class="cls-1" d="M255.76,53.6H275.4c-.37,4.12-.7,8-1.06,12,2.87-2.65,5.35-5.34,8.21-7.53,6.82-5.2,14.54-7.14,22.93-4.93,10.11,2.67,15,10.32,16.33,19.89,2.87,21-2.49,39.83-18,54.82-9.85,9.53-21.8,12.89-35.33,9-1.22-.35-2.47-.58-3.7-.83-.23,0-.49.11-1,.24q-3.15,16-6.35,32.21h-23C241.58,130.14,248.65,92,255.76,53.6Zm42.7,30.9a21.43,21.43,0,0,0,0-2.66c-.55-4.12-1.51-8-5.83-9.92s-8.19-.27-11.09,2.67-5.75,6.17-6.8,9.81c-2.79,9.66-4.42,19.65-6.87,29.41-.7,2.82.33,3.88,2.44,5,6.3,3.19,13.46,1.18,18.63-5.61C295.33,104.71,298,94.94,298.46,84.5Z"/><path class="cls-1" d="M122.62,136c3-16.06,6-31.45,8.79-46.88a44.42,44.42,0,0,0,.76-11.32c-.46-5.89-5-8.78-10.22-6a26.93,26.93,0,0,0-9.37,8.92,39.76,39.76,0,0,0-5,13c-2.83,13.1-5.1,26.33-7.75,39.48-.22,1.06-1.67,2.64-2.6,2.68-6.82.22-13.64.12-21,.12,7.49-39.3,14.9-78.22,22.35-117.33h23.16c-2.87,15-5.71,29.8-8.62,45,3.3-2.59,6.13-5.18,9.31-7.23a25.79,25.79,0,0,1,19.23-3.94c8.85,1.69,13.72,7.49,14.61,16.51,1,10.16-1.61,19.88-3.35,29.7-2.06,11.58-4.34,23.13-6.67,34.66-.2,1-1.5,2.47-2.32,2.49C136.94,136.11,130,136,122.62,136Z"/><path class="cls-1" d="M197,137.65c-20.6.44-33.59-11.1-34.46-29.69-.83-17.63,4.52-33.4,18.07-45.38,10.77-9.53,23.62-12.8,37.56-9.28,12.5,3.16,19.62,12.1,21.07,24.66,2.34,20.26-3.26,37.93-19.53,51.18C212.51,135,204,137.72,197,137.65Zm19.44-53.74A45.59,45.59,0,0,0,215.15,77c-2-6.1-8.25-8.89-14-6-2.49,1.25-5.21,3.2-6.44,5.56C191.8,82.15,189,88,187.56,94c-1.27,5.13-1.13,10.75-.78,16.1a9.87,9.87,0,0,0,7.26,9.25c4.51,1.38,8.27,0,11.32-3.32a32.82,32.82,0,0,0,4.68-6.38C214.25,101.94,215.79,93.52,216.44,83.91Z"/><path class="cls-1" d="M431.15,17.79c-1.56,6.4-3,12.15-4.43,18.15-5.3-.7-10.61-2.1-15.16,2s-5.68,9.33-6.65,15.32h15.78c-1,5.77-1.83,11.08-2.93,16.33-.13.61-1.71,1.24-2.64,1.28-3.55.15-7.11.21-10.64,0-2.28-.12-2.93.68-3.33,2.89-3.67,20.16-7.51,40.28-11.29,60.42-.1.48-.23,1-.39,1.64H366.41c4-21.59,8-43,12.11-65H367.84c1.07-5.58,2-10.66,3.13-15.67.18-.75,1.7-1.53,2.7-1.68,2.7-.43,6.19.39,8-1s1.39-4.9,2.06-7.47c2.39-9.31,6.49-17.62,14.69-23.19C408.43,15,419.36,14.82,431.15,17.79Z"/><path class="cls-1" d="M13.21,131.67c1.87-5.41,3.72-10.73,5.42-15.64,5.43,1.44,10.46,3.11,15.62,4.06,6.64,1.23,11.55-.93,13-5.08,1.57-4.43-.52-8.12-6.79-12.14-2.77-1.77-5.59-3.49-8.19-5.49C16.52,85.16,23.2,66.15,34,58.87c9-6,18.95-7.54,29.42-6.3,4.31.51,8.54,1.78,13.33,2.82-2,6.16-3.67,11.51-5.25,16.46-5.07-.82-9.75-1.79-14.47-2.24a13.92,13.92,0,0,0-6.28,1.07c-5.12,2.06-6.28,7.63-2.21,11.34,2.67,2.44,6,4.16,9.06,6.19,6,4,11.5,8.51,13.31,15.91,3,12.24-3.32,24.6-15.89,29.87-13.12,5.51-26.45,4.67-39.53-.75a7.8,7.8,0,0,1-1.3-.77C13.9,132.26,13.62,132,13.21,131.67Z"/><path class="cls-1" d="M346.44,135.81H323.27c5.2-26.92,10.34-53.56,15.5-80.26h23.31C356.85,82.39,351.66,109,346.44,135.81Z"/><path class="cls-1" d="M367,31c0,8-5.65,13.56-13.67,13.55-6.77,0-10.88-4.48-10.87-11.83,0-8,5.45-13.62,13.16-13.64C362.48,19.08,367,23.83,367,31Z"/></svg>