<svg id="Capa_1" data-name="Capa 1" xmlns="http://www.w3.org/2000/svg" viewBox="0 0 700 180"><defs><style>.cls-1{fill:#fff;}</style></defs><path class="cls-1" d="M139.19,138.16c.44-33.74-6.32-43.77-34.59-56.13-9.45-4.13-19.09-8.1-27.87-13.41-11.26-6.8-16-17.76-12-30.39,4-12.88,14.87-18.29,27.64-17.59,28.51,1.57,48.83,16.23,60,42.24S159.14,113.11,139.19,138.16Z"/><path class="cls-1" d="M39.73,42.73C33.38,75.05,50.59,89.16,74.36,98.84c9.54,3.89,19.43,7.11,27.83,13.36,10.24,7.62,13.62,18,10.14,30S99,158.58,87.43,159.32c-24.72,1.57-50.83-15.8-62.21-41.09C13.67,92.59,18.28,63.88,39.73,42.73Z"/><path class="cls-1" d="M257.63,150.56c-24.75-.13-40-9.57-44.76-26.24-1-3.34-4.23-7.92.82-9.65,3.93-1.34,8.59-1.47,11.55,4.6,9.41,19.35,30.25,25.49,49.35,15.41,6.8-3.59,10.75-8.77,10.3-16.9-.46-8.39-5.6-12.75-12.85-14.78-11.29-3.17-22.81-5.52-34.12-8.63-13.52-3.71-22.16-12.14-23.21-26.68-.92-12.73,8.1-24.88,21.64-29.9,22.4-8.3,48.87.28,56,18.67,1.59,4.08,5.83,10.34-.89,13.3-6.4,2.82-8.77-1.55-11.28-7.85-6.87-17.16-35.51-21-48-7.29-8.91,9.83-4.8,23.33,8.85,27.43,9.87,3,20.12,4.67,30.11,7.32,18.44,4.89,26.8,14.45,26.5,29.75s-10.37,25.61-28.79,29.54C264.33,149.64,259.67,150.22,257.63,150.56Z"/><path class="cls-1" d="M508.53,117.56c0,8.46,0,16.92,0,25.38,0,2.24.34,5.11-2.93,5.28-2.7.14-7.75-.21-7.82-.83-1.67-13.51-7.41-3.82-11.08-1.86-18.35,9.77-41.05,2.5-43.69-14.36-2.08-13.3,4.5-21.9,16.52-25.8,8.85-2.88,18.29-4,27.47-5.79,3.87-.77,9.26.62,9.37-5.75A13.32,13.32,0,0,0,489.9,82c-10.17-6.73-25.83-4-31.48,7.11-2.86,5.63-6.61,5.43-9.94,4.27-5.81-2-2.76-6.94-1.29-10.46C452.05,71.35,467,65.6,485,68.27c13.75,2,22.22,9.76,23.31,23.92.65,8.41.12,16.91.12,25.37ZM470.85,139c9.89-1.14,18.64-4.52,23.3-14.66,1.8-3.91,3.73-8.33,1.91-12.08-2.61-5.38-7.49-.93-11.21-.75a87.26,87.26,0,0,0-17.88,3c-6.64,1.75-12.58,5.22-11.8,13.29C456,136.76,463.21,138.16,470.85,139Z"/><path class="cls-1" d="M657.7,150.29c-12.05-.91-24.37-3.81-30.07-17.48-1.16-2.77-5.1-8.64,1.89-10.17,3.34-.73,8-2.49,9.63,4.4,2.16,9.39,10.61,11.43,18.81,11.53,8.52.1,18.39-.58,19.52-11.57,1.1-10.71-9.31-10-16-12.1s-14-2.46-20.43-5a20.16,20.16,0,0,1-9.86-29.28c7-11.6,18.48-13.31,30.8-12.71,11.19.54,20.2,4.66,24.65,15.44,1.2,2.89,5.35,7.42.27,9.71-3.85,1.74-8.87,2.34-11.54-4-5.32-12.67-16.07-11-26.41-8.37-4.81,1.22-8,4.73-7.81,10.35.18,5,3,7.67,7.61,8.77,5.47,1.32,11,2.52,16.45,3.74,19.78,4.41,26.64,11.65,24.7,26.07C688.3,141.89,675.77,150.22,657.7,150.29Z"/><path class="cls-1" d="M352,67.79c22.13-.08,37.35,16.14,37.72,40.2.38,24.24-15.55,42.2-37.48,42.29-22.51.1-37.29-16.64-37.15-42.07C315.22,83.42,329.43,67.87,352,67.79Zm24.83,42.8c1-17.61-8.55-30.52-23.25-31.36-15-.86-25.2,9.64-26,26.87-.92,18.81,8.63,31.88,23.73,32.49C365.5,139.17,375.84,127.84,376.84,110.59Z"/><path class="cls-1" d="M408.9,91.3c0-15.06,0-30.11,0-45.17,0-4.39-1.62-9.63,6.36-9.4,7,.19,5.66,4.7,5.67,8.66Q421,92.67,421,140c0,3.94,1.39,8.49-5.63,8.71-7.94.23-6.38-5-6.4-9.38C408.85,123.29,408.9,107.29,408.9,91.3Z"/><path class="cls-1" d="M532.61,107.36c0-10.78.34-21.58-.11-32.34-.32-7.71,6.79-8.55,8.66-6,5.28,7.27,8.65,2.76,13.66.6,4.07-1.76,9.12-1.34,13.76-1.65,5.22-.34,5.78,2.93,5.76,7.22,0,4.8-2.75,4.69-6.34,5.11-20.53,2.36-23,5.33-23.26,26.53-.1,10.77,0,21.56,0,32.34,0,4.64,1,9.62-6.53,9.39-6.82-.21-5.52-4.91-5.56-8.87C532.55,128.92,532.61,118.14,532.61,107.36Z"/><path class="cls-1" d="M604.55,109.63c0,10.79-.18,21.59.08,32.38.12,4.74-1.29,6.66-6.31,6.61s-6.21-2.4-6.18-6.91c.14-22.05.1-44.11,0-66.16,0-4.12.26-7.06,5.75-7.27,6-.24,6.85,2.55,6.73,7.57C604.37,87.1,604.55,98.37,604.55,109.63Z"/><path class="cls-1" d="M597.79,40c6-1.08,7.56,1.51,7.39,6.88-.14,4.74-.33,7.84-6.57,7.72-5.92-.11-8.14-1.73-8.06-8C590.63,40.81,593,39.18,597.79,40Z"/></svg>